<?xml version="1.0" standalone="no"?>
<!DOCTYPE svg PUBLIC "-//W3C//DTD SVG 20010904//EN"
 "http://www.w3.org/TR/2001/REC-SVG-20010904/DTD/svg10.dtd">
<svg version="1.0" xmlns="http://www.w3.org/2000/svg"
 width="300.000000pt" height="300.000000pt" viewBox="0 0 300.000000 300.000000"
 preserveAspectRatio="xMidYMid meet">
<metadata>
Created by potrace 1.10, written by Peter Selinger 2001-2011
</metadata>
<g transform="translate(0.000000,300.000000) scale(0.100000,-0.100000)"
fill="#000000" stroke="none">
<path d="M1394 2381 c-246 -70 -419 -308 -400 -552 18 -244 197 -443 446 -495
355 -75 696 217 667 571 -19 225 -188 421 -413 480 -77 20 -222 18 -300 -4z
m244 -6 c108 -12 226 -76 313 -167 58 -63 116 -187 128 -276 33 -250 -114
-481 -358 -564 -78 -26 -249 -31 -316 -9 -192 63 -323 196 -371 376 -19 68
-17 199 2 266 48 166 193 311 364 364 32 11 139 23 165 19 11 -2 44 -6 73 -9z"/>
<path d="M1524 2204 c16 -84 18 -107 9 -101 -6 4 -17 27 -24 52 -7 25 -16 45
-20 45 -16 0 -14 -14 7 -58 12 -26 21 -49 19 -51 -2 -2 -19 13 -38 33 -40 42
-92 66 -143 66 -69 0 -114 -78 -101 -175 18 -128 156 -281 212 -235 16 13 21
1 7 -16 -5 -5 -19 -34 -31 -65 -12 -31 -36 -69 -52 -85 -26 -25 -38 -29 -86
-29 -48 0 -58 4 -79 28 -50 58 -19 114 76 141 70 20 79 31 18 21 -127 -21
-179 -116 -105 -190 41 -41 105 -54 173 -35 58 16 96 62 132 158 25 69 28 73
55 70 25 -3 31 -10 50 -63 42 -122 84 -162 181 -172 70 -6 135 26 155 79 12
34 11 41 -6 74 -11 22 -34 45 -54 55 -41 21 -115 36 -106 22 4 -6 24 -13 46
-17 95 -15 132 -98 69 -151 -27 -23 -39 -26 -75 -22 -65 7 -91 30 -129 113
-38 83 -42 103 -19 84 36 -30 135 54 181 153 41 88 28 202 -27 241 -49 34
-133 12 -195 -52 -38 -39 -43 -30 -15 28 10 21 16 41 13 44 -11 11 -22 6 -22
-11 0 -25 -23 -83 -33 -83 -5 0 -7 7 -3 15 3 8 8 38 11 67 5 39 4 49 -4 38 -6
-8 -11 -28 -11 -43 0 -16 -4 -26 -10 -22 -5 3 -10 19 -10 35 0 16 -5 32 -11
36 -8 4 -9 -3 -5 -22z m-105 -67 c69 -42 84 -106 60 -258 -11 -64 -29 -95 -29
-48 0 12 -5 19 -12 16 -8 -2 -12 -15 -10 -30 8 -64 -88 1 -137 92 -58 110 -53
213 12 245 36 17 67 13 116 -17z m376 18 c66 -27 77 -127 25 -231 -51 -104
-150 -174 -142 -100 4 35 -20 31 -28 -5 -9 -36 -17 -8 -31 109 -10 81 -9 107
1 132 15 36 82 97 114 103 11 2 22 5 24 6 1 0 18 -6 37 -14z m-231 -185 c4
-36 9 -86 12 -112 l6 -48 -32 0 c-23 0 -31 4 -27 14 3 7 8 55 12 107 10 133
19 144 29 39z"/>
<path d="M451 1082 c-23 -46 -37 -62 -62 -71 -50 -17 -103 -13 -133 10 -31 24
-33 39 -6 39 22 0 27 16 8 23 -42 14 -51 -37 -14 -72 32 -30 91 -37 140 -17
33 14 37 14 32 1 -3 -10 1 -15 13 -15 14 0 18 5 14 19 -3 14 3 24 24 36 21 12
23 14 6 10 -21 -6 -22 -4 -12 24 6 17 15 31 19 31 13 0 43 -87 37 -105 -5 -11
0 -15 18 -15 l24 0 -30 73 c-17 39 -35 76 -39 81 -5 5 -22 -19 -39 -52z"/>
<path d="M695 1060 c0 -67 3 -80 16 -80 11 0 15 7 13 23 -10 74 -11 106 -3
101 5 -3 29 -36 52 -72 23 -37 43 -60 44 -52 1 8 3 48 5 88 3 61 1 72 -12 72
-14 0 -16 -10 -13 -57 3 -49 2 -55 -8 -38 -26 42 -71 95 -82 95 -8 0 -12 -26
-12 -80z"/>
<path d="M1025 1131 c-3 -5 -18 -41 -34 -79 -26 -66 -27 -71 -10 -75 16 -4 18
-1 13 18 -5 18 0 27 23 40 15 9 20 14 11 11 -21 -6 -23 9 -5 42 13 22 14 21
36 -32 12 -31 20 -60 16 -66 -3 -6 3 -10 14 -10 12 0 21 3 21 6 0 10 -69 154
-74 154 -3 0 -7 -4 -11 -9z"/>
<path d="M1266 1121 c-27 -30 -12 -59 35 -71 33 -9 40 -15 37 -33 -4 -28 -43
-35 -69 -11 -22 20 -38 12 -20 -10 34 -40 111 -20 111 29 0 18 -8 28 -27 36
-48 19 -58 26 -58 40 0 18 42 24 61 9 11 -10 14 -9 14 3 0 31 -58 36 -84 8z"/>
<path d="M1486 1133 c-3 -4 -6 -13 -6 -22 0 -12 3 -12 12 -3 7 7 20 12 30 12
15 0 18 -9 18 -58 0 -32 -5 -63 -12 -70 -9 -9 -7 -12 13 -12 24 0 24 1 21 71
l-4 71 31 -7 c25 -5 30 -4 25 9 -4 11 -21 15 -64 15 -32 0 -61 -3 -64 -6z"/>
<path d="M1791 1123 c-5 -10 -20 -46 -34 -80 -25 -61 -25 -63 -6 -63 16 0 19
5 14 19 -4 15 1 24 22 36 15 9 20 14 11 11 -21 -6 -23 9 -4 42 12 23 13 22 34
-33 12 -31 20 -61 16 -66 -3 -5 4 -9 15 -9 12 0 21 3 21 6 0 11 -69 154 -74
154 -3 0 -9 -8 -15 -17z"/>
<path d="M2037 1122 c-10 -10 -17 -23 -17 -29 0 -16 35 -43 57 -43 11 0 26 -7
33 -15 17 -20 -3 -45 -37 -45 -13 0 -26 7 -29 15 -4 8 -12 15 -20 15 -22 0 -5
-27 25 -40 31 -13 76 1 86 28 9 23 -17 53 -55 66 -20 6 -35 18 -35 26 0 19 41
26 60 10 8 -7 15 -7 19 -1 8 12 -25 31 -52 31 -10 0 -26 -8 -35 -18z"/>
<path d="M2285 1060 c0 -64 3 -80 15 -80 12 0 15 16 15 80 0 64 -3 80 -15 80
-12 0 -15 -16 -15 -80z"/>
<path d="M2491 1066 c-37 -88 -36 -86 -12 -86 13 0 18 5 14 18 -2 10 4 39 14
65 l19 48 17 -36 17 -36 -32 -14 c-27 -12 -29 -14 -11 -15 12 0 25 5 28 10 10
16 27 0 22 -21 -4 -15 0 -19 20 -19 23 0 23 1 9 22 -22 31 -21 34 15 47 46 16
111 14 137 -5 24 -17 31 -50 8 -41 -20 8 -28 -4 -15 -19 8 -10 16 -11 30 -3
25 13 24 32 -4 64 -29 35 -96 44 -151 21 -22 -9 -40 -15 -41 -14 0 2 -9 22
-20 46 -10 23 -21 42 -26 42 -4 0 -21 -33 -38 -74z"/>
<path d="M840 868 c-29 -15 -37 -42 -20 -63 14 -17 66 -20 75 -6 3 5 -8 9 -25
9 -37 -1 -48 8 -34 30 13 19 62 27 84 13 12 -9 11 -15 -7 -48 -23 -43 -39
-103 -26 -103 4 0 17 14 28 30 11 16 24 30 29 30 5 0 18 8 28 17 17 15 20 15
34 1 19 -18 11 -53 -13 -62 -25 -10 -28 2 -8 24 17 19 17 20 2 14 -27 -10 -39
-40 -23 -53 19 -16 44 -4 61 30 18 35 18 34 -1 53 -14 14 -14 19 3 46 15 25
15 32 4 39 -17 11 -47 3 -62 -15 -10 -13 -14 -12 -29 1 -24 21 -71 28 -100 13z
m180 -12 c0 -17 -17 -39 -46 -61 l-35 -27 7 29 c7 29 39 62 62 63 6 0 12 -2
12 -4z"/>
<path d="M1442 843 c-12 -23 -22 -48 -22 -56 0 -18 -47 -73 -55 -65 -4 3 0 20
9 36 15 29 15 30 -9 28 -14 0 -25 -6 -25 -13 0 -16 -60 -64 -71 -57 -14 8 -11
40 6 54 18 15 20 -1 3 -19 -11 -11 -10 -13 1 -9 25 7 38 37 21 48 -11 8 -23 2
-48 -27 -33 -37 -52 -40 -33 -5 13 25 14 32 2 32 -5 0 -15 -16 -21 -35 -15
-45 -30 -45 -30 0 l0 36 -39 -42 c-22 -22 -44 -38 -50 -35 -11 7 -6 45 9 60
15 15 25 -1 10 -19 -8 -10 -9 -15 -2 -15 21 0 33 37 17 50 -11 9 -19 7 -40
-14 -28 -28 -31 -46 -13 -64 18 -18 39 -15 65 10 19 18 23 19 23 5 0 -21 18
-31 33 -19 22 17 55 20 61 6 9 -24 46 -16 76 16 32 35 45 39 30 10 -22 -40 10
-54 41 -17 16 19 18 20 19 4 0 -25 27 -32 49 -13 17 16 19 16 25 0 6 -15 8
-15 26 1 17 15 20 15 20 3 0 -8 -9 -23 -20 -33 -19 -18 -28 -55 -12 -55 4 0
14 10 22 21 8 12 32 42 52 67 42 51 44 70 3 26 -22 -24 -26 -25 -22 -9 3 11 8
28 12 38 12 28 -9 18 -30 -15 -30 -47 -50 -50 -31 -4 19 46 9 46 -27 1 -46
-58 -65 -37 -26 29 12 22 19 48 17 68 l-3 33 -23 -42z"/>
<path d="M1846 837 c-43 -53 -56 -58 -56 -24 0 35 -30 57 -77 57 -71 0 -97
-61 -37 -88 31 -15 44 -15 44 -2 0 6 -8 10 -19 10 -24 0 -45 25 -38 45 8 20
54 30 83 16 32 -14 33 -62 2 -80 -27 -14 -63 -60 -54 -68 11 -12 57 17 74 47
23 41 42 38 42 -5 0 -40 21 -55 50 -37 13 8 21 7 29 -1 10 -9 18 -6 37 16 22
26 24 26 24 7 0 -30 30 -38 49 -13 16 20 17 20 33 -1 15 -20 16 -20 36 -3 18
16 20 16 26 1 5 -12 13 -14 34 -9 31 7 80 51 69 62 -4 4 -14 -3 -23 -15 -14
-20 -16 -20 -34 -4 -26 21 -26 35 0 27 11 -4 20 -2 20 4 0 6 -9 11 -19 11 -21
0 -45 -20 -61 -51 -12 -21 -40 -26 -40 -8 0 7 9 26 19 43 24 39 37 96 22 96
-14 0 -37 -38 -46 -75 -6 -30 -41 -75 -57 -75 -14 0 -9 28 12 62 21 34 27 88
10 88 -11 0 -34 -42 -44 -80 -7 -30 -44 -75 -53 -66 -3 3 -1 18 6 32 6 15 9
29 5 33 -4 3 -9 0 -11 -7 -9 -24 -55 -72 -64 -66 -18 11 -10 73 11 86 11 7 20
16 20 21 0 4 -5 5 -12 1 -7 -4 -8 -3 -4 5 4 6 12 9 17 6 11 -7 23 19 17 36 -2
7 -21 -9 -42 -34z m283 -101 c8 -10 9 -16 1 -21 -12 -7 -42 19 -33 29 10 10
20 7 32 -8z"/>
<path d="M2225 850 c3 -6 -1 -7 -9 -4 -23 9 -25 -44 -3 -58 18 -12 29 -9 21 4
-5 7 -3 8 6 3 7 -4 16 -2 21 6 12 19 11 25 -7 43 -17 18 -39 22 -29 6z"/>
</g>
</svg>
