<?xml version="1.0" standalone="no"?>
<!DOCTYPE svg PUBLIC "-//W3C//DTD SVG 20010904//EN"
 "http://www.w3.org/TR/2001/REC-SVG-20010904/DTD/svg10.dtd">
<svg version="1.0" xmlns="http://www.w3.org/2000/svg"
 width="300.000000pt" height="300.000000pt" viewBox="0 0 300.000000 300.000000"
 preserveAspectRatio="xMidYMid meet">
<metadata>
Created by potrace 1.10, written by Peter Selinger 2001-2011
</metadata>
<g transform="translate(0.000000,300.000000) scale(0.100000,-0.100000)"
fill="#000000" stroke="none">
<path d="M50 1900 c0 -7 492 -10 1455 -10 963 0 1455 3 1455 10 0 7 -492 10
-1455 10 -963 0 -1455 -3 -1455 -10z"/>
<path d="M189 1757 c-103 -39 -139 -101 -139 -236 0 -170 66 -246 224 -258 94
-7 135 5 163 46 32 47 19 56 -29 21 -54 -39 -143 -43 -195 -8 -56 39 -78 97
-77 202 0 77 4 97 23 129 50 81 146 97 272 43 13 -6 15 -1 11 23 -5 37 -12 39
-125 46 -65 4 -103 1 -128 -8z"/>
<path d="M1795 1746 c-93 -34 -144 -140 -130 -269 15 -128 72 -192 192 -216
38 -7 92 -29 140 -56 77 -44 116 -55 128 -35 3 6 -4 14 -17 19 -13 5 -40 23
-62 40 -21 17 -48 31 -60 31 -16 1 -12 6 17 21 101 53 144 139 135 269 -6 85
-32 137 -86 174 -37 27 -52 30 -130 33 -59 2 -100 -1 -127 -11z m158 -27 c80
-22 112 -94 105 -236 -6 -103 -16 -130 -64 -162 -27 -19 -48 -24 -92 -24 -105
0 -153 56 -160 187 -5 102 9 157 53 200 44 45 89 54 158 35z"/>
<path d="M507 1683 c4 -38 8 -149 7 -249 l-1 -180 116 -1 c64 -1 123 1 132 3
18 5 46 61 35 71 -3 4 -16 -4 -28 -16 -18 -20 -27 -22 -66 -17 -25 3 -61 6
-80 6 l-35 0 6 225 6 225 -50 0 -50 0 8 -67z"/>
<path d="M845 1500 l0 -250 40 0 40 0 0 250 1 250 -41 0 -40 0 0 -250z"/>
<path d="M1020 1724 c6 -14 10 -126 10 -250 l0 -224 35 0 c40 0 41 2 20 33
-12 19 -14 52 -8 196 5 130 9 170 17 158 6 -9 71 -100 145 -202 112 -154 139
-185 159 -185 l25 0 -6 152 c-4 83 -7 195 -7 250 l0 98 -31 0 c-27 0 -30 -2
-19 -15 9 -11 11 -57 9 -170 -2 -85 -6 -155 -9 -155 -3 0 -61 77 -129 170
l-125 170 -48 0 c-47 0 -47 0 -38 -26z"/>
<path d="M1518 1500 l3 -250 39 0 40 0 0 234 c0 129 3 241 6 250 5 13 -2 16
-42 16 l-49 0 3 -250z"/>
<path d="M2195 1739 c4 -5 10 -97 14 -202 7 -207 13 -233 64 -271 24 -17 43
-21 115 -21 102 0 141 14 168 58 17 28 19 56 22 240 l4 207 -36 0 c-33 0 -36
-2 -26 -19 13 -26 13 -325 -1 -374 -16 -59 -40 -77 -104 -77 -71 0 -102 15
-116 57 -11 36 -14 321 -3 379 l6 34 -56 0 c-38 0 -55 -4 -51 -11z"/>
<path d="M2653 1678 c7 -60 4 -335 -5 -401 -3 -16 9 -18 138 -19 78 0 147 2
153 6 6 4 11 22 11 39 -1 25 -3 29 -10 16 -5 -9 -20 -19 -34 -23 -24 -6 -163
8 -173 17 -2 3 -2 45 2 94 l7 88 96 0 c91 0 95 1 98 23 4 22 2 22 -96 22
l-100 0 0 83 0 84 58 2 c31 0 70 4 85 7 19 4 34 0 48 -12 18 -17 19 -16 19 14
l0 32 -153 0 -153 0 9 -72z"/>
<path d="M50 1100 c0 -7 492 -10 1455 -10 963 0 1455 3 1455 10 0 7 -492 10
-1455 10 -963 0 -1455 -3 -1455 -10z"/>
</g>
</svg>
