<?xml version="1.0" standalone="no"?>
<!DOCTYPE svg PUBLIC "-//W3C//DTD SVG 20010904//EN"
 "http://www.w3.org/TR/2001/REC-SVG-20010904/DTD/svg10.dtd">
<svg version="1.0" xmlns="http://www.w3.org/2000/svg"
 width="300.000000pt" height="41.000000pt" viewBox="0 0 300.000000 41.000000"
 preserveAspectRatio="xMidYMid meet">
<metadata>
Created by potrace 1.10, written by Peter Selinger 2001-2011
</metadata>
<g transform="translate(0.000000,41.000000) scale(0.050000,-0.050000)"
fill="#000000" stroke="none">
<path d="M44 616 c37 -772 595 -760 604 13 l2 161 -307 6 -308 5 9 -185z m212
72 c25 -17 58 -60 73 -95 24 -55 28 -57 29 -17 4 104 147 178 229 118 31 -22
25 -24 -44 -18 -112 11 -163 -43 -163 -173 0 -137 -52 -134 -65 4 -12 128 -70
182 -175 166 -65 -10 -67 -9 -31 18 50 37 91 37 147 -3z m-7 -87 c33 -37 32
-39 -25 -69 -79 -41 -174 17 -126 76 36 43 108 40 151 -7z m340 1 c33 -37 32
-40 -6 -60 -93 -50 -189 -4 -130 62 43 47 92 46 136 -2z m-214 -342 l112 0
-47 -50 c-63 -67 -120 -63 -191 13 -42 45 -48 59 -22 50 20 -7 87 -13 148 -13z"/>
<path d="M904 546 l6 -254 129 2 129 2 -5 92 c-7 114 0 114 75 5 60 -87 60
-88 206 -98 181 -13 175 -24 66 132 l-92 132 82 120 81 121 -141 0 -141 0 -64
-92 -65 -92 -6 92 -6 92 -130 0 -129 0 5 -254z"/>
<path d="M1700 550 l0 -250 132 0 132 0 -13 70 c-16 89 7 89 64 0 42 -65 53
-70 150 -70 58 0 125 -6 150 -13 59 -15 58 16 -3 106 -47 70 -48 71 -10 109
53 53 52 204 -2 258 -36 36 -67 40 -320 40 l-280 0 0 -250z m370 90 c0 -42
-11 -51 -65 -56 -61 -6 -65 -3 -65 56 0 59 4 62 65 56 54 -5 65 -14 65 -56z"/>
<path d="M2400 788 c0 -6 55 -88 122 -181 104 -144 121 -179 114 -238 l-8 -69
136 0 136 0 1 85 c0 72 19 110 118 245 l117 160 -143 6 c-133 6 -146 3 -189
-47 l-45 -53 -41 52 c-39 49 -318 84 -318 40z"/>
<path d="M3245 760 l-65 -39 0 -180 c0 -237 5 -241 331 -241 308 0 329 15 329
238 0 170 -17 210 -103 240 -112 39 -417 28 -492 -18z m326 -88 c42 -164 -24
-356 -99 -293 -47 39 -46 311 2 338 45 25 84 8 97 -45z"/>
<path d="M3940 550 l0 -250 250 0 250 0 0 70 0 70 -110 0 -110 0 0 180 0 180
-140 0 -140 0 0 -250z"/>
<path d="M4588 550 l-80 -250 126 0 c95 0 130 8 139 30 16 41 207 43 207 2 0
-21 34 -30 130 -35 72 -4 130 -3 130 3 0 5 -37 120 -82 255 l-81 245 -205 0
-204 0 -80 -250z m324 -26 c12 -59 9 -64 -34 -57 -27 4 -46 13 -45 20 2 8 10
41 18 75 15 72 43 55 61 -38z"/>
<path d="M5300 545 l0 -255 132 0 131 0 -6 95 c-9 117 -2 117 73 5 65 -98 39
-90 305 -90 8 0 15 110 15 245 l0 245 -127 6 -127 6 7 -81 c10 -101 0 -101
-81 -1 -63 78 -66 80 -193 80 l-129 0 0 -255z"/>
<path d="M900 110 c0 -49 9 -70 30 -70 17 0 30 14 30 30 0 22 22 30 80 30 67
0 80 7 80 40 0 35 -13 40 -110 40 l-110 0 0 -70z"/>
<path d="M1160 110 c0 -49 9 -70 30 -70 17 0 30 14 30 30 0 38 22 38 71 1 54
-41 103 -42 69 -1 -17 21 -18 30 -2 30 12 0 22 18 22 40 0 35 -13 40 -110 40
l-110 0 0 -70z m170 30 c7 -12 -13 -20 -49 -20 -33 0 -61 9 -61 20 0 11 22 20
49 20 27 0 54 -9 61 -20z"/>
<path d="M1440 110 l0 -70 100 0 100 0 0 70 0 70 -100 0 -100 0 0 -70z m160 0
c0 -42 -9 -50 -60 -50 -51 0 -60 8 -60 50 0 42 9 50 60 50 51 0 60 -8 60 -50z"/>
<path d="M1700 110 c0 -49 9 -70 30 -70 17 0 30 13 30 29 0 19 28 31 85 36
l85 8 -85 4 c-47 1 -85 11 -85 22 0 10 38 22 85 26 74 7 70 8 -30 12 l-115 3
0 -70z"/>
<path d="M1960 110 l0 -70 105 3 c100 4 101 4 20 12 -47 4 -85 15 -85 25 0 10
38 21 85 25 l85 8 -85 4 c-47 1 -85 11 -85 22 0 10 38 22 85 26 81 8 80 8 -20
12 l-105 3 0 -70z"/>
<path d="M2220 140 c0 -33 13 -40 80 -40 107 0 103 -36 -5 -45 -81 -8 -80 -8
20 -12 93 -3 105 2 105 37 0 33 -13 40 -80 40 -107 0 -103 36 5 45 81 8 80 8
-20 12 -93 3 -105 -2 -105 -37z"/>
<path d="M2480 140 c0 -33 13 -40 79 -40 114 0 119 -36 6 -45 -95 -8 -94 -8
20 -11 103 -4 115 0 115 36 0 33 -13 40 -80 40 -107 0 -103 36 5 45 74 7 70 8
-30 12 -103 3 -115 -1 -115 -37z"/>
<path d="M2760 110 c0 -38 9 -70 20 -70 11 0 20 32 20 70 0 39 -9 70 -20 70
-11 0 -20 -31 -20 -70z"/>
<path d="M2860 110 l0 -72 105 6 c163 9 163 123 0 132 l-105 6 0 -72z m160 0
c0 -42 -9 -50 -60 -50 -51 0 -60 8 -60 50 0 42 9 50 60 50 51 0 60 -8 60 -50z"/>
<path d="M3139 175 c-17 -64 -9 -135 13 -135 16 0 28 19 28 41 l0 42 58 -42
c81 -57 102 -52 102 29 0 39 -9 70 -20 70 -11 0 -20 -18 -20 -40 0 -50 -16
-50 -80 0 -45 35 -78 49 -81 35z"/>
<path d="M3400 110 c0 -38 9 -70 20 -70 11 0 20 14 20 30 0 20 20 30 60 30 40
0 60 -10 60 -30 0 -16 14 -30 30 -30 21 0 30 21 30 70 l0 70 -110 0 -110 0 0
-70z m160 30 c0 -11 -27 -20 -60 -20 -33 0 -60 9 -60 20 0 11 27 20 60 20 33
0 60 -9 60 -20z"/>
<path d="M3680 110 l0 -70 105 3 c100 4 101 4 20 12 -79 7 -85 11 -85 66 0 33
-9 59 -20 59 -11 0 -20 -31 -20 -70z"/>
<path d="M4180 110 c0 -49 9 -70 30 -70 17 0 30 16 30 35 0 25 17 36 60 37 46
2 60 -6 60 -35 0 -20 9 -37 20 -37 11 0 20 32 20 70 0 71 -31 91 -74 48 -16
-16 -33 -16 -63 0 -66 36 -83 26 -83 -48z"/>
<path d="M4460 111 c0 -39 9 -71 20 -71 11 0 20 14 20 30 0 20 20 30 60 30 40
0 60 -10 60 -30 0 -16 14 -30 31 -30 23 0 30 17 25 65 -6 63 -9 65 -111 71
l-105 6 0 -71z m160 29 c0 -11 -27 -20 -60 -20 -33 0 -60 9 -60 20 0 11 27 20
60 20 33 0 60 -9 60 -20z"/>
<path d="M4740 110 c0 -38 9 -70 20 -70 11 0 20 14 20 30 0 39 48 39 80 0 14
-17 39 -30 56 -30 26 0 25 6 -4 38 -33 36 -33 39 1 59 20 11 30 26 22 34 -7 8
-36 0 -64 -18 -62 -41 -91 -42 -91 -3 0 17 -9 30 -20 30 -11 0 -20 -31 -20
-70z"/>
<path d="M5000 110 l0 -70 105 3 c100 4 101 4 20 12 -47 4 -85 15 -85 25 0 10
38 21 85 25 l85 8 -85 4 c-47 1 -85 11 -85 22 0 10 38 22 85 26 81 8 80 8 -20
12 l-105 3 0 -70z"/>
<path d="M5480 110 l0 -70 100 0 100 0 0 70 c0 39 -9 70 -20 70 -11 0 -20 -27
-20 -60 0 -53 -7 -60 -60 -60 -53 0 -60 7 -60 60 0 33 -9 60 -20 60 -11 0 -20
-31 -20 -70z"/>
<path d="M5740 110 c0 -49 9 -70 30 -70 17 0 30 14 30 30 0 22 22 30 80 30 67
0 80 7 80 40 0 35 -13 40 -110 40 l-110 0 0 -70z m170 30 c7 -12 -13 -20 -49
-20 -33 0 -61 9 -61 20 0 11 22 20 49 20 27 0 54 -9 61 -20z"/>
<path d="M5280 120 c0 -11 32 -20 71 -20 43 0 66 8 59 20 -7 11 -39 20 -71 20
-33 0 -59 -9 -59 -20z"/>
</g>
</svg>
