<?xml version="1.0" standalone="no"?>
<!DOCTYPE svg PUBLIC "-//W3C//DTD SVG 20010904//EN"
 "http://www.w3.org/TR/2001/REC-SVG-20010904/DTD/svg10.dtd">
<svg version="1.0" xmlns="http://www.w3.org/2000/svg"
 width="300.000000pt" height="147.000000pt" viewBox="0 0 300.000000 147.000000"
 preserveAspectRatio="xMidYMid meet">
<metadata>
Created by potrace 1.10, written by Peter Selinger 2001-2011
</metadata>
<g transform="translate(0.000000,147.000000) scale(0.100000,-0.100000)"
fill="#000000" stroke="none">
<path d="M15 1400 c4 -6 69 -10 166 -10 l159 0 2 -652 3 -653 78 -3 77 -3 0
656 0 655 145 0 c132 0 145 -2 145 -17 0 -10 -36 -304 -79 -653 -44 -349 -77
-637 -75 -639 15 -16 28 68 84 524 34 280 63 511 65 513 1 2 81 -230 176 -515
l174 -518 59 0 60 0 170 527 c94 290 171 526 173 524 1 -1 30 -222 63 -492 33
-269 62 -506 66 -527 l6 -38 76 3 c70 3 77 5 75 23 -12 109 -155 1266 -159
1283 -4 19 -10 23 -37 20 l-31 -3 -195 -602 c-108 -332 -198 -603 -201 -603
-3 0 -93 271 -201 603 l-196 602 -427 3 c-286 1 -425 -1 -421 -8z"/>
<path d="M1912 748 l3 -663 78 -3 77 -3 0 231 0 230 91 125 c50 69 94 127 98
129 4 3 102 -156 218 -352 l211 -357 87 -3 c77 -2 87 -1 81 13 -3 9 -115 200
-248 423 -133 224 -241 412 -241 418 0 6 75 112 166 237 92 124 167 229 167
232 0 24 -55 -47 -321 -410 l-304 -414 -3 414 -2 415 -80 0 -80 0 2 -662z"/>
</g>
</svg>
