<?xml version="1.0" standalone="no"?>
<!DOCTYPE svg PUBLIC "-//W3C//DTD SVG 20010904//EN"
 "http://www.w3.org/TR/2001/REC-SVG-20010904/DTD/svg10.dtd">
<svg version="1.0" xmlns="http://www.w3.org/2000/svg"
 width="284.000000pt" height="177.000000pt" viewBox="0 0 284.000000 177.000000"
 preserveAspectRatio="xMidYMid meet">
<metadata>
Created by potrace 1.10, written by Peter Selinger 2001-2011
</metadata>
<g transform="translate(0.000000,177.000000) scale(0.100000,-0.100000)"
fill="#000000" stroke="none">
<path d="M276 1033 c-3 -4 -6 -71 -6 -150 0 -132 1 -144 18 -141 15 3 17 18
20 116 1 61 5 112 7 112 3 0 59 -27 125 -60 114 -57 122 -60 147 -46 27 14 26
14 -116 86 -163 81 -186 91 -195 83z"/>
<path d="M915 995 c-38 -18 -128 -61 -200 -94 -97 -46 -126 -64 -115 -71 28
-18 52 -10 209 65 86 41 160 75 163 75 4 0 7 -39 7 -87 -1 -127 0 -133 14
-139 8 -3 109 50 226 118 l213 122 103 -55 104 -54 -187 -5 c-172 -5 -190 -7
-222 -27 l-35 -23 268 0 268 0 73 -40 c73 -40 102 -48 108 -30 2 6 15 6 39 0
22 -6 154 -9 325 -8 281 3 289 4 289 23 0 19 -8 20 -312 25 -294 5 -313 6
-339 26 -38 28 -48 47 -40 78 9 37 38 63 83 75 23 7 154 11 326 11 280 0 287
0 287 20 0 20 -7 20 -307 20 -278 0 -312 -2 -349 -19 -70 -32 -111 -110 -84
-161 6 -12 10 -23 8 -25 -2 -2 -91 46 -198 106 -107 60 -202 108 -210 108 -8
0 -103 -51 -210 -113 l-195 -113 -5 111 c-4 88 -8 111 -20 113 -8 1 -46 -13
-85 -32z"/>
<path d="M1077 944 c-19 -20 -5 -34 34 -34 33 0 40 3 37 18 -3 17 -57 30 -71
16z"/>
<path d="M1715 940 c-11 -18 5 -30 40 -30 37 0 56 17 34 31 -19 12 -66 11 -74
-1z"/>
</g>
</svg>
