<?xml version="1.0" standalone="no"?>
<!DOCTYPE svg PUBLIC "-//W3C//DTD SVG 20010904//EN"
 "http://www.w3.org/TR/2001/REC-SVG-20010904/DTD/svg10.dtd">
<svg version="1.0" xmlns="http://www.w3.org/2000/svg"
 width="450.000000pt" height="240.000000pt" viewBox="0 0 450.000000 240.000000"
 preserveAspectRatio="xMidYMid meet">
<metadata>
Created by potrace 1.10, written by Peter Selinger 2001-2011
</metadata>
<g transform="translate(0.000000,240.000000) scale(0.100000,-0.100000)"
fill="#000000" stroke="none">
<path d="M2330 1430 l0 -420 24 0 24 0 -5 108 c-6 133 8 241 37 282 29 40 86
57 140 41 64 -19 70 -40 70 -251 l0 -180 26 0 26 0 -4 188 c-4 197 -9 223 -56
265 -49 44 -155 34 -208 -21 l-36 -37 4 223 3 222 -22 0 -23 0 0 -420z"/>
<path d="M2850 1430 l0 -420 26 0 c24 0 26 3 22 40 -2 22 -1 40 2 40 4 0 19
-14 35 -30 43 -45 123 -66 190 -51 71 16 115 49 150 112 26 47 30 64 30 129 0
83 -20 133 -72 182 -80 77 -219 78 -299 3 -20 -19 -37 -35 -38 -35 -1 0 0 101
2 225 l3 225 -25 0 -26 0 0 -420z m320 -7 c99 -58 121 -221 43 -314 -36 -42
-74 -59 -136 -59 -68 0 -129 37 -157 96 -39 79 -21 204 37 256 54 49 150 59
213 21z"/>
<path d="M199 1467 c-18 -12 -39 -39 -47 -59 -13 -33 -12 -41 4 -75 16 -32 33
-45 100 -78 106 -52 114 -59 114 -107 0 -110 -154 -138 -205 -37 -17 31 -42
38 -51 14 -8 -20 29 -77 63 -96 126 -73 277 34 233 165 -14 42 -46 67 -125 97
-31 12 -66 30 -76 40 -40 40 -11 105 52 115 28 5 41 1 66 -20 19 -16 37 -24
47 -20 22 8 20 17 -6 41 -55 49 -115 57 -169 20z"/>
<path d="M644 1456 l-34 -34 0 29 c0 24 -4 29 -25 29 l-25 0 0 -235 0 -235 25
0 25 0 0 153 c1 181 8 223 50 260 42 37 89 37 132 -2 l33 -29 3 -191 4 -191
24 0 24 0 0 170 c0 191 9 228 59 254 58 31 121 14 143 -38 9 -22 13 -84 13
-208 0 -178 0 -178 23 -178 l22 0 -1 183 c0 207 -7 240 -59 275 -29 20 -44 23
-94 20 -53 -4 -62 -8 -93 -42 -19 -21 -36 -36 -38 -34 -1 2 -8 14 -14 26 -16
30 -68 52 -122 52 -33 0 -47 -6 -75 -34z"/>
<path d="M1403 1465 c-62 -31 -99 -82 -115 -158 -24 -112 20 -222 108 -273 87
-51 215 -31 273 42 l21 27 0 -47 c0 -41 2 -46 23 -46 l22 0 0 235 0 235 -22 0
c-20 0 -23 -5 -23 -40 l0 -41 -35 34 c-64 62 -166 75 -252 32z m170 -29 c21
-8 48 -22 59 -33 53 -47 74 -165 43 -241 -32 -75 -86 -112 -165 -112 -107 0
-180 79 -180 196 0 146 115 235 243 190z"/>
<path d="M1968 1474 c-34 -18 -58 -62 -58 -108 0 -48 42 -88 129 -121 82 -31
96 -45 96 -97 0 -33 -7 -46 -33 -69 -55 -49 -134 -36 -168 27 -19 35 -29 40
-53 25 -19 -12 14 -68 58 -98 50 -34 96 -39 149 -17 61 25 92 71 92 135 0 65
-30 100 -121 135 -108 42 -131 88 -73 142 33 29 65 28 103 -4 21 -18 37 -23
51 -19 19 6 20 9 7 28 -33 50 -124 71 -179 41z"/>
<path d="M3561 1476 c-47 -17 -108 -70 -130 -114 -69 -135 -2 -300 139 -345
64 -21 83 -21 146 -2 180 54 233 279 95 408 -68 64 -164 84 -250 53z m141 -36
c49 -14 94 -53 119 -103 30 -57 23 -149 -13 -205 -54 -81 -183 -109 -264 -56
-65 42 -88 87 -89 171 0 63 3 76 30 114 34 48 103 89 149 89 17 0 48 -5 68
-10z"/>
<path d="M3970 1483 c0 -1 38 -50 85 -108 47 -57 85 -109 85 -113 0 -5 -43
-64 -95 -131 -91 -117 -93 -121 -66 -121 24 0 40 15 106 103 43 56 81 105 84
109 4 4 44 -42 90 -102 65 -86 89 -110 107 -110 13 0 24 3 24 6 0 3 -39 56
-86 116 -47 60 -88 116 -90 123 -3 7 33 60 80 118 47 57 83 107 80 109 -2 3
-15 3 -29 1 -15 -4 -48 -36 -94 -94 -39 -50 -74 -89 -78 -87 -4 1 -38 41 -75
89 -54 69 -74 88 -98 91 -16 3 -30 3 -30 1z"/>
<path d="M849 672 c-28 -23 -30 -73 -4 -102 21 -24 72 -27 101 -6 24 18 10 34
-16 18 -42 -26 -80 -8 -80 38 0 14 5 31 12 38 17 17 53 15 68 -3 10 -12 16
-13 24 -5 8 8 6 15 -8 26 -27 19 -69 18 -97 -4z"/>
<path d="M1195 665 c-30 -30 -31 -54 -4 -89 41 -52 129 -25 129 40 0 69 -76
99 -125 49z m89 -11 c19 -18 21 -55 4 -72 -7 -7 -24 -12 -38 -12 -14 0 -31 5
-38 12 -15 15 -15 61 0 76 17 17 54 15 72 -4z"/>
<path d="M1556 674 c-32 -32 -17 -54 44 -64 44 -7 48 -34 5 -38 -19 -3 -33 2
-42 14 -16 22 -31 9 -17 -14 16 -24 93 -24 108 1 16 26 -4 51 -48 57 -20 3
-37 8 -36 13 0 4 0 12 0 17 0 14 36 13 60 -2 26 -16 40 0 16 18 -26 19 -71 18
-90 -2z"/>
<path d="M1887 684 c-4 -4 -7 -36 -7 -71 0 -51 3 -63 16 -63 14 0 16 9 12 50
-3 28 -2 50 2 50 4 0 17 -23 28 -51 13 -30 27 -49 34 -47 7 3 25 29 40 59 l27
54 0 -57 c1 -32 6 -58 11 -58 6 0 10 30 10 70 0 89 -18 93 -58 13 l-29 -56
-29 53 c-29 53 -44 67 -57 54z"/>
<path d="M2290 620 l0 -70 50 0 c28 0 50 5 50 10 0 6 -18 10 -40 10 -33 0 -40
3 -40 20 0 17 7 20 40 20 22 0 40 5 40 10 0 6 -18 10 -40 10 -33 0 -40 3 -40
20 0 17 7 20 40 20 22 0 40 5 40 10 0 6 -22 10 -50 10 l-50 0 0 -70z"/>
<path d="M2594 679 c-6 -10 1 -12 34 -9 21 1 22 -2 22 -59 0 -34 4 -61 10 -61
6 0 10 27 10 61 l0 62 30 -6 c22 -5 30 -3 30 8 0 10 -16 13 -65 13 -36 0 -68
-4 -71 -9z"/>
<path d="M2940 620 c0 -40 4 -70 10 -70 6 0 10 30 10 70 0 40 -4 70 -10 70 -6
0 -10 -30 -10 -70z"/>
<path d="M3205 665 c-28 -27 -31 -45 -14 -78 16 -30 28 -37 66 -37 33 0 76 31
53 38 -6 2 -17 -1 -23 -7 -15 -15 -50 -14 -65 1 -15 15 -15 61 0 76 17 17 53
15 68 -3 7 -8 17 -12 23 -8 15 9 -31 43 -60 43 -13 0 -35 -11 -48 -25z"/>
<path d="M3546 671 c-30 -33 -11 -53 59 -63 11 -2 21 -11 23 -21 3 -13 -4 -17
-31 -17 -22 0 -37 6 -41 15 -7 19 -26 20 -26 0 0 -33 86 -48 114 -19 29 29 12
54 -40 63 -25 4 -39 12 -39 21 0 19 42 25 61 9 8 -6 18 -9 22 -5 11 12 -29 36
-58 36 -15 0 -34 -8 -44 -19z"/>
</g>
</svg>
