<?xml version="1.0" standalone="no"?>
<!DOCTYPE svg PUBLIC "-//W3C//DTD SVG 20010904//EN"
 "http://www.w3.org/TR/2001/REC-SVG-20010904/DTD/svg10.dtd">
<svg version="1.0" xmlns="http://www.w3.org/2000/svg"
 width="300.000000pt" height="86.000000pt" viewBox="0 0 300.000000 86.000000"
 preserveAspectRatio="xMidYMid meet">
<metadata>
Created by potrace 1.10, written by Peter Selinger 2001-2011
</metadata>
<g transform="translate(0.000000,86.000000) scale(0.100000,-0.100000)"
fill="#000000" stroke="none">
<path d="M2865 701 c-28 -16 -169 -173 -207 -229 -13 -19 -17 -20 -21 -7 -15
37 -125 -3 -238 -86 -37 -27 -67 -41 -90 -42 -53 -3 -42 22 19 42 54 19 102
55 102 78 0 19 -47 27 -90 14 -21 -6 -60 -27 -87 -46 -74 -54 -146 -95 -165
-95 -35 0 -21 48 27 95 50 51 71 58 53 20 -6 -14 -8 -28 -4 -32 11 -12 41 12
44 35 7 47 -73 38 -160 -17 -41 -26 -45 -32 -44 -67 1 -32 5 -40 28 -48 36
-13 113 10 154 46 l32 28 -2 -32 c-1 -26 4 -34 25 -41 39 -14 92 -1 151 40 29
19 47 30 41 22 -18 -18 -16 -56 3 -63 30 -12 62 -6 97 18 l36 25 3 -22 c4 -30
38 -33 85 -8 50 27 99 68 90 77 -3 4 -25 -10 -47 -30 -37 -33 -70 -47 -70 -28
0 13 162 213 234 289 36 39 66 73 66 77 0 12 -36 6 -65 -13z m-488 -264 c-16
-25 -75 -62 -84 -53 -10 9 75 88 87 81 8 -5 7 -13 -3 -28z m237 -14 c-26 -35
-101 -93 -120 -93 -8 0 -14 6 -14 14 0 18 86 105 114 116 33 12 43 -6 20 -37z"/>
<path d="M267 695 c-105 -37 -137 -144 -60 -205 75 -59 209 -13 189 65 -7 26
-59 65 -86 65 -8 -1 2 -10 22 -20 41 -22 54 -49 38 -79 -22 -43 -95 -55 -140
-24 -35 23 -40 33 -40 75 0 44 40 83 96 94 46 8 182 0 254 -16 l55 -13 -25
-15 c-30 -19 -112 -102 -197 -199 -71 -80 -110 -103 -181 -103 -57 0 -72 12
-48 39 20 22 20 45 1 61 -22 19 -63 -2 -71 -36 -6 -22 -2 -32 20 -50 38 -34
90 -40 164 -21 114 30 168 72 291 225 l74 91 73 -2 c76 -2 102 8 91 37 -8 19
-92 22 -130 5 -19 -9 -45 -6 -127 15 -113 29 -204 33 -263 11z m508 -40 c0
-13 -59 -19 -94 -10 -24 7 -25 8 -6 16 27 11 100 7 100 -6z"/>
<path d="M1385 701 c-11 -3 -34 -14 -51 -23 -83 -45 -87 -156 -7 -197 38 -20
39 -12 0 20 -29 24 -37 38 -37 63 0 96 114 128 322 90 l88 -16 -58 -42 c-32
-24 -72 -61 -89 -83 -28 -34 -36 -39 -66 -35 -21 2 -38 -1 -42 -8 -6 -9 2 -11
29 -8 20 2 36 1 36 -3 0 -17 -102 -111 -134 -124 -46 -20 -125 -20 -132 -1 -3
8 2 25 11 39 15 23 15 26 0 41 -19 19 -18 19 -49 5 -49 -23 -37 -81 21 -106
80 -33 221 12 323 104 32 29 62 47 80 48 26 2 28 1 19 -17 -17 -32 -7 -28 40
13 29 26 41 43 34 50 -6 6 -18 3 -35 -11 -15 -11 -38 -20 -52 -20 -34 0 -27
13 44 92 l51 58 69 -3 c52 -1 73 2 85 14 15 14 15 17 0 29 -21 17 -71 18 -121
1 -35 -11 -50 -9 -138 13 -95 25 -196 32 -241 17z m490 -46 c0 -12 -70 -19
-94 -10 -14 6 -14 8 4 16 26 11 90 7 90 -6z"/>
<path d="M605 461 c-43 -19 -105 -82 -105 -106 0 -20 40 -45 70 -45 60 1 170
82 170 126 0 11 6 14 16 10 9 -3 22 -6 31 -6 11 0 8 -8 -11 -31 -65 -77 0
-126 106 -80 89 38 127 124 65 146 -22 7 -42 5 -86 -11 -32 -11 -67 -17 -77
-13 -98 35 -123 36 -179 10z m95 -11 c0 -41 -119 -146 -135 -120 -10 16 34 79
78 111 47 34 57 36 57 9z m242 -6 c-6 -29 -48 -80 -87 -104 -75 -46 -61 14 20
89 47 43 73 49 67 15z"/>
<path d="M1800 459 c-25 -11 -60 -34 -77 -52 -76 -72 -9 -133 80 -73 l36 25 3
-22 c2 -14 11 -23 25 -25 26 -4 91 28 117 57 26 29 10 26 -26 -4 -29 -24 -58
-33 -58 -17 0 4 20 32 45 62 25 30 45 58 45 62 0 13 -34 9 -57 -7 -19 -13 -22
-13 -27 0 -8 21 -53 18 -106 -6z m100 -8 c0 -26 -106 -121 -137 -121 -26 0
-12 30 38 79 33 32 60 51 75 51 13 0 24 -4 24 -9z"/>
<path d="M852 144 c-41 -28 -24 -92 29 -109 21 -7 69 18 69 35 0 14 -7 13 -35
-6 -33 -21 -68 -4 -63 33 4 35 32 52 58 35 31 -19 47 -13 21 8 -28 24 -49 25
-79 4z"/>
<path d="M1038 149 c-43 -25 -42 -85 2 -109 61 -33 119 51 70 100 -22 22 -46
25 -72 9z m62 -29 c14 -27 4 -57 -20 -65 -39 -12 -68 30 -44 63 19 28 50 28
64 2z"/>
<path d="M1202 148 c-19 -19 -15 -36 13 -54 14 -9 25 -23 25 -30 0 -16 -16
-19 -25 -4 -3 6 -13 10 -22 10 -14 0 -14 -3 2 -20 23 -25 37 -25 60 0 17 19
17 21 0 40 -10 11 -24 20 -32 20 -7 0 -13 7 -13 15 0 18 21 20 39 3 10 -11 12
-9 9 7 -4 23 -38 31 -56 13z"/>
<path d="M1330 94 c0 -45 3 -63 11 -58 7 4 9 22 6 45 -7 51 7 50 22 -1 6 -22
16 -40 20 -40 5 0 16 18 25 40 20 51 30 51 21 1 -4 -24 -2 -42 4 -46 7 -4 11
16 11 60 0 78 -16 84 -41 14 l-17 -44 -16 39 c-9 21 -16 42 -16 47 0 5 -7 9
-15 9 -12 0 -15 -14 -15 -66z"/>
<path d="M1520 100 c0 -52 2 -60 19 -60 11 0 26 -3 35 -6 11 -4 16 -1 16 11 0
11 -7 15 -22 13 -15 -2 -24 3 -26 15 -3 13 3 17 22 17 14 0 26 5 26 10 0 6
-11 10 -25 10 -16 0 -25 6 -25 15 0 9 9 15 25 15 14 0 25 5 25 10 0 6 -16 10
-35 10 l-35 0 0 -60z"/>
<path d="M1640 150 c0 -5 7 -10 15 -10 12 0 15 -13 15 -55 0 -30 5 -55 10 -55
6 0 10 25 10 55 0 42 3 55 15 55 8 0 15 5 15 10 0 6 -18 10 -40 10 -22 0 -40
-4 -40 -10z"/>
<path d="M1780 94 c0 -41 4 -63 10 -59 6 3 10 33 10 66 0 33 -4 59 -10 59 -6
0 -10 -29 -10 -66z"/>
<path d="M1880 140 c-11 -11 -20 -29 -20 -40 0 -24 42 -70 63 -70 20 0 64 37
55 46 -5 4 -16 0 -26 -9 -24 -22 -35 -21 -57 3 -15 17 -16 24 -7 45 12 25 45
34 57 15 3 -5 13 -10 22 -10 14 0 14 3 -2 20 -10 11 -29 20 -42 20 -12 0 -32
-9 -43 -20z"/>
<path d="M2050 145 c-16 -20 -6 -43 25 -57 14 -6 25 -15 25 -19 0 -15 -21 -20
-36 -8 -20 17 -31 2 -12 -17 28 -28 76 3 62 40 -3 7 -16 18 -30 24 -13 7 -24
16 -24 22 0 13 27 13 35 0 4 -6 11 -8 16 -4 14 8 -9 34 -31 34 -10 0 -23 -7
-30 -15z"/>
</g>
</svg>
