<?xml version="1.0" standalone="no"?>
<!DOCTYPE svg PUBLIC "-//W3C//DTD SVG 20010904//EN"
 "http://www.w3.org/TR/2001/REC-SVG-20010904/DTD/svg10.dtd">
<svg version="1.0" xmlns="http://www.w3.org/2000/svg"
 width="300.000000pt" height="105.000000pt" viewBox="0 0 300.000000 105.000000"
 preserveAspectRatio="xMidYMid meet">
<metadata>
Created by potrace 1.10, written by Peter Selinger 2001-2011
</metadata>
<g transform="translate(0.000000,105.000000) scale(0.100000,-0.100000)"
fill="#000000" stroke="none">
<path d="M1561 894 c-31 -39 -27 -77 10 -108 17 -14 37 -26 46 -26 13 0 13 -3
2 -16 -8 -10 -23 -14 -41 -12 l-28 5 0 -89 c0 -52 -4 -88 -10 -88 -20 0 -9
-18 14 -24 14 -3 39 -18 56 -32 l31 -27 22 20 c12 12 39 26 60 33 45 14 52 34
51 143 -1 98 -17 122 -105 159 -82 34 -98 47 -75 64 9 6 26 9 38 6 14 -3 19
-1 14 6 -13 22 -63 14 -85 -14z m113 -160 c12 -12 16 -37 16 -105 l0 -90 -25
18 c-23 17 -24 24 -25 106 0 88 6 100 34 71z"/>
<path d="M1202 837 c-12 -13 -22 -33 -22 -46 0 -28 17 -61 32 -61 9 0 9 3 0
12 -20 20 -15 58 8 58 30 0 40 -31 40 -120 0 -75 -2 -82 -21 -87 -20 -6 -18
-8 17 -38 l39 -33 48 35 c26 19 47 30 47 23 0 -6 11 -22 25 -36 l25 -25 40 33
c44 36 49 46 23 44 -16 -1 -18 11 -21 92 -2 77 0 92 13 92 8 0 15 5 15 10 0 6
-5 10 -12 10 -7 0 -24 11 -38 25 l-26 25 -34 -35 c-19 -19 -28 -35 -22 -35 10
0 12 -24 10 -92 -3 -85 -5 -93 -23 -93 -19 0 -20 8 -25 113 -5 106 -7 114 -30
132 -35 27 -81 25 -108 -3z"/>
<path d="M460 380 c-19 -4 -29 -8 -22 -9 8 -1 12 -24 12 -80 0 -54 -4 -81 -12
-84 -7 -3 7 -6 32 -6 35 0 41 2 28 10 -23 13 -25 79 -4 79 8 0 32 -26 53 -57
21 -32 53 -68 72 -80 35 -24 81 -31 81 -13 0 6 -9 10 -20 10 -32 0 -65 27
-106 86 -35 51 -36 55 -21 72 45 49 -9 90 -93 72z m75 -29 c9 -28 -5 -51 -31
-51 -21 0 -24 5 -24 35 0 30 3 35 24 35 15 0 27 -7 31 -19z"/>
<path d="M700 378 c0 -5 5 -8 10 -8 15 0 13 -157 -2 -163 -7 -3 13 -6 44 -6
82 -1 116 41 68 84 -14 13 -17 22 -10 29 13 13 13 53 -1 62 -15 9 -109 11
-109 2z m87 -24 c7 -18 -7 -46 -25 -52 -8 -2 -12 9 -12 32 0 38 25 51 37 20z
m17 -86 c14 -23 -3 -52 -33 -56 -19 -3 -21 1 -21 38 0 37 2 41 21 38 12 -2 27
-11 33 -20z"/>
<path d="M1022 370 c-40 -103 -64 -155 -75 -162 -7 -5 2 -8 23 -8 23 0 30 3
21 9 -8 5 -11 16 -6 30 5 18 13 22 38 19 28 -3 32 -7 32 -30 -1 -25 3 -28 35
-28 22 0 30 3 22 9 -7 4 -28 48 -47 97 -30 81 -34 87 -43 64z m16 -84 c-2 -8
-10 -11 -19 -7 -13 5 -15 11 -7 31 8 23 10 23 19 7 6 -10 9 -24 7 -31z"/>
<path d="M1230 381 c0 -6 5 -11 10 -11 15 0 13 -157 -2 -163 -7 -3 5 -6 27 -6
32 0 36 2 23 10 -14 8 -18 23 -18 72 l1 62 74 -77 75 -78 0 90 c0 65 3 90 13
91 6 0 -1 5 -17 10 -29 8 -54 1 -28 -8 7 -3 12 -25 12 -61 l0 -56 -62 61 c-60
58 -108 87 -108 64z"/>
<path d="M1645 380 c-22 -4 -34 -8 -27 -9 17 -2 17 -157 0 -164 -7 -3 15 -6
50 -6 78 -1 116 17 131 62 28 83 -45 138 -154 117z m102 -32 c32 -30 31 -81
-2 -113 -45 -46 -80 -31 -79 35 1 97 2 100 31 100 15 0 37 -10 50 -22z"/>
<path d="M1970 380 c-36 -4 -59 -7 -52 -8 8 -1 12 -25 12 -81 0 -54 -4 -81
-12 -84 -7 -3 22 -6 65 -6 42 -1 77 3 77 8 0 5 3 17 7 27 5 14 1 13 -25 -6
-45 -33 -82 -22 -82 25 0 32 2 35 30 35 17 0 33 -7 39 -17 9 -15 10 -12 11 17
0 26 -3 31 -12 22 -7 -7 -25 -12 -40 -12 -25 0 -28 3 -28 35 0 33 2 35 35 35
22 0 38 -6 44 -17 9 -15 10 -14 11 10 0 15 -3 26 -7 25 -5 -1 -37 -4 -73 -8z"/>
<path d="M2224 381 c-58 -25 -73 -110 -28 -155 21 -21 36 -26 74 -26 34 0 50
4 54 16 12 31 6 37 -14 16 -27 -29 -55 -28 -85 3 -29 28 -33 79 -9 113 19 28
78 31 93 5 9 -17 10 -17 17 0 3 10 5 20 2 22 -9 10 -85 14 -104 6z"/>
<path d="M2500 309 c-18 -44 -39 -87 -47 -95 -13 -12 -10 -14 19 -14 22 0 29
3 19 9 -8 5 -11 16 -6 30 9 31 70 30 78 -1 4 -13 1 -26 -6 -30 -7 -4 5 -8 27
-8 36 0 38 1 24 18 -9 9 -28 52 -43 95 -15 42 -29 77 -30 77 -2 0 -17 -36 -35
-81z m40 -21 c0 -11 -6 -15 -19 -11 -17 4 -18 8 -9 29 8 18 14 21 20 12 4 -7
8 -20 8 -30z"/>
<path d="M2674 378 c-3 -4 1 -8 10 -8 8 0 28 -19 45 -42 36 -48 42 -101 14
-117 -14 -8 -6 -10 32 -10 28 1 42 3 33 6 -43 11 0 153 50 166 10 3 -1 5 -23
6 -25 0 -35 -2 -27 -8 11 -6 10 -14 -6 -40 l-20 -32 -21 30 c-12 17 -20 35
-17 40 3 5 -10 11 -30 13 -19 2 -37 0 -40 -4z"/>
<path d="M138 373 c8 -3 12 -28 12 -72 0 -81 15 -101 77 -101 54 0 71 22 79
101 4 35 12 67 18 71 6 4 -7 8 -29 8 -32 -1 -36 -3 -22 -11 18 -10 23 -70 10
-117 -8 -33 -49 -47 -79 -27 -21 13 -24 23 -24 75 0 46 4 61 18 69 13 8 7 10
-28 10 -25 0 -39 -3 -32 -6z"/>
</g>
</svg>
